<svg xmlns:xlink="http://www.w3.org/1999/xlink" className="svg" viewBox="0 0 85.04 85.04">
    <path d="M68.658,83.976c-16.71,0-33.328,0-50.041,0c0-0.28,0-0.529,0-0.778c0-10.862-0.005-21.724,0.001-32.584
	c0.004-5.701,4.305-10.162,9.939-10.188c10.05-0.046,20.101-0.046,30.153,0c5.628,0.025,9.943,4.504,9.945,10.188
	c0.006,10.86,0.002,21.722,0.002,32.584C68.658,83.428,68.658,83.659,68.658,83.976z"></path>
    <path d="M43.635,35.02c-9.264,0.002-16.797-7.595-16.803-16.947C26.828,8.646,34.319,1.065,43.635,1.066
	c9.311,0.001,16.816,7.592,16.811,17.003C60.441,27.417,52.9,35.018,43.635,35.02z"></path>
    <path d="M16.652,84.04c-3.48-0.227-6.897,0.397-10.238-0.62c-2.337-0.715-4.337-1.973-6-3.764C0.18,79.4,0.019,78.967,0.018,78.617
	c-0.021-8.612-0.02-17.227-0.014-25.84c0.003-4.084,2.875-7.338,6.911-7.521c3.65-0.168,7.312-0.036,11.053-0.036
	c-0.082,0.223-0.138,0.409-0.218,0.583c-0.746,1.642-1.108,3.354-1.105,5.166c0.014,10.697,0.007,21.39,0.007,32.086
	C16.652,83.333,16.652,83.61,16.652,84.04z"></path>
    <path d="M69.292,45.2c0.607,0,1.156,0,1.704,0c2.151,0,4.305-0.008,6.458,0.002c4.433,0.019,7.605,3.235,7.607,7.713
	c0.002,8.517,0.006,17.035-0.019,25.552c-0.002,0.391-0.187,0.877-0.454,1.159c-2.572,2.725-5.719,4.231-9.465,4.35
	c-1.475,0.048-2.949,0.008-4.505,0.008c0-0.33,0-0.604,0-0.879c0-10.553-0.017-21.105,0.014-31.658
	c0.006-2.053-0.326-3.997-1.203-5.845C69.381,45.5,69.354,45.389,69.292,45.2z"></path>
    <path d="M6.062,28.636c0.039-9.41,9.92-15.452,18.191-11.114c0.353,0.185,0.632,0.34,0.634,0.86
	c0.011,4.994,1.714,9.327,5.094,12.967c0.406,0.438,0.493,0.808,0.292,1.358c-0.973,2.676-2.531,4.922-4.948,6.409
	C16.738,44.4,7.394,38.952,6.173,30.314C6.094,29.762,6.097,29.196,6.062,28.636z"></path>
    <path d="M78.981,28.637c0.013,6.66-5.02,12.078-11.614,12.538c-0.885,0.062-1.627-0.057-2.404-0.577
	c-1.52-1.012-3.226-1.593-5.062-1.782c-0.448-0.045-0.935-0.267-1.291-0.552c-1.44-1.149-2.489-2.621-3.3-4.281
	c-0.194-0.4-0.17-0.628,0.188-0.936c4.736-4.045,7.054-9.208,6.882-15.479c-0.015-0.58,0.136-0.811,0.683-0.97
	C71.044,14.282,78.966,20.263,78.981,28.637z"></path>
</svg>